<?xml version="1.0" encoding="UTF-8"?>
<svg version="1.1" xmlns="http://www.w3.org/2000/svg" width="95" height="95">
<path d="M0 0 C10.03107173 -0.89165082 19.35700322 3.77237299 27 10 C32.75772289 15.4679469 36.06902435 21.2487188 36.5 29.3125 C36.21213074 37.71828235 32.75556755 43.69537276 26.6875 49.375 C19.80290705 55.03794876 12.08828598 59 3 59 C3 58.01 3 57.02 3 56 C3.75023437 55.78085938 4.50046875 55.56171875 5.2734375 55.3359375 C15.77324352 52.08284899 24.06214779 48.69409754 29.94140625 39.05078125 C32.46675259 34.15850513 32.79183472 29.16733887 31.46875 23.875 C28.44168854 15.18864972 23.10134856 11.00676453 15 7 C11.04755705 5.48877181 7.06103399 4.18621268 3 3 C2.95101562 4.31484375 2.90203125 5.6296875 2.8515625 6.984375 C2.7762722 8.90625904 2.7007272 10.82813312 2.625 12.75 C2.58608643 13.78809814 2.54717285 14.82619629 2.50708008 15.89575195 C2.26470328 21.93689563 1.94967853 27.96246634 1.52105713 33.99295044 C1.28980386 37.2478748 1.07340627 40.50374363 0.85638428 43.75964355 C0.7440391 45.37470191 0.62399336 46.98924352 0.49615479 48.60314941 C0.3153126 50.89468243 0.16109338 53.18669956 0.01171875 55.48046875 C-0.04950668 56.16604355 -0.11073212 56.85161835 -0.17381287 57.55796814 C-0.38413036 61.20247343 -0.16535293 62.77096452 2.00317383 65.7746582 C2.99160278 66.87620239 2.99160278 66.87620239 4 68 C3.93572343 71.21382832 3.53112958 73.16137435 1.8125 75.875 C-0.94344924 77.58558918 -2.82625484 77.45339217 -6 77 C-8.375 75.375 -8.375 75.375 -10 73 C-10.5 70 -10.5 70 -10 67 C-8.125 64.625 -8.125 64.625 -6 63 C-5.34 63 -4.68 63 -4 63 C-4.00720566 62.33269363 -4.01441132 61.66538727 -4.02183533 60.9778595 C-4.06231592 54.31572896 -3.82513964 47.72010799 -3.37890625 41.07421875 C-3.31468979 40.08299515 -3.25047333 39.09177155 -3.18431091 38.07051086 C-3.04900927 35.99570505 -2.91195188 33.92101304 -2.77319336 31.84643555 C-2.56190162 28.67852851 -2.35772403 25.51021763 -2.15429688 22.34179688 C-2.02125529 20.31507642 -1.88780608 18.28838268 -1.75390625 16.26171875 C-1.6934462 15.32100021 -1.63298615 14.38028168 -1.57069397 13.41105652 C-1.26379825 8.88335928 -0.85733477 4.46507342 0 0 Z M-5.625 67.5 C-6.07875 67.995 -6.5325 68.49 -7 69 C-6.34 70.65 -5.68 72.3 -5 74 C-3.35 73.67 -1.7 73.34 0 73 C0.77242269 71.16299211 0.77242269 71.16299211 1 69 C-0.22954016 67.18700508 -0.22954016 67.18700508 -2 66 C-4.12364481 65.77390663 -4.12364481 65.77390663 -5.625 67.5 Z " fill="#506A97" transform="translate(51,18)"/>
<path d="M0 0 C2.60964149 1.03012164 3.83498357 1.58694861 5.375 3.9375 C5.78562354 7.22248832 5.9921336 9.09595419 4 11.8125 C2.375 12.9375 2.375 12.9375 0.375 12.9375 C0.32710831 13.72454819 0.27921661 14.51159637 0.22987366 15.32249451 C-0.22137475 22.72469824 -0.67706293 30.1266087 -1.13779354 37.52822781 C-1.37452493 41.33385744 -1.60951274 45.13957833 -1.84057617 48.94555664 C-2.06345534 52.61568296 -2.29083556 56.28550474 -2.52139473 59.95515633 C-2.60873747 61.35814501 -2.69443313 62.7612372 -2.77848625 64.1644268 C-2.89611301 66.12347171 -3.02003911 68.08213537 -3.14428711 70.04077148 C-3.21312607 71.15773911 -3.28196503 72.27470673 -3.35289001 73.42552185 C-3.625 75.9375 -3.625 75.9375 -4.625 76.9375 C-15.56279322 76.57888383 -24.88526329 72.57347909 -32.78125 64.9921875 C-38.02519248 59.14830245 -40.0170314 53.13162466 -39.90234375 45.37109375 C-39.07816851 38.13924623 -34.96327368 31.73504338 -29.625 26.9375 C-22.85304709 21.79807145 -15.90079411 19.55853184 -7.625 17.9375 C-7.13 19.4225 -7.13 19.4225 -6.625 20.9375 C-7.615 21.22882812 -8.605 21.52015625 -9.625 21.8203125 C-20.65968633 25.19303127 -28.34049849 28.8442097 -34.625 38.9375 C-36.57158589 44.77725768 -36.65007879 51.5032918 -34.125 57.1875 C-27.98452054 67.66496145 -17.67902182 70.83912669 -6.625 73.9375 C-6.60518066 73.36346436 -6.58536133 72.78942871 -6.56494141 72.19799805 C-6.46386369 69.34017931 -6.3571136 66.4825989 -6.25 63.625 C-6.21108643 62.53807861 -6.17217285 61.45115723 -6.13208008 60.33129883 C-5.86484906 53.41639632 -5.47289179 46.52630474 -4.97265625 39.625 C-4.80793342 37.24466381 -4.6445604 34.86423784 -4.48138428 32.48379517 C-4.36894654 30.913385 -4.24888766 29.34350162 -4.12115479 27.77426147 C-3.94080005 25.55225001 -3.78641125 23.32972603 -3.63671875 21.10546875 C-3.53834717 19.81922607 -3.43997559 18.5329834 -3.33862305 17.20776367 C-3.68395491 13.26426815 -4.69574419 12.44031181 -7.625 9.9375 C-8.1875 6.9375 -8.1875 6.9375 -7.625 3.9375 C-5.12171555 1.14812589 -3.80877374 -0.09068509 0 0 Z M-4.625 3.9375 C-4.625 5.9175 -4.625 7.8975 -4.625 9.9375 C-1.04172247 10.93967064 -1.04172247 10.93967064 2.375 9.9375 C2.375 7.9575 2.375 5.9775 2.375 3.9375 C-1.20827753 2.93532936 -1.20827753 2.93532936 -4.625 3.9375 Z " fill="#899CC0" transform="translate(47.625,0.0625)"/>
<path d="M0 0 C0.33 0 0.66 0 1 0 C0.97905273 1.12494873 0.95810547 2.24989746 0.93652344 3.40893555 C0.86398477 7.59272474 0.8181501 11.77645861 0.78027344 15.96069336 C0.76018947 17.7697078 0.73291659 19.57865757 0.69824219 21.38745117 C0.64958108 23.99153621 0.62699949 26.59476115 0.609375 29.19921875 C0.58872986 30.00461594 0.56808472 30.81001312 0.54681396 31.63981628 C0.54475372 36.82522328 1.38283156 39.06438099 5 43 C4.93572343 46.21382832 4.53112958 48.16137435 2.8125 50.875 C0.05655076 52.58558918 -1.82625484 52.45339217 -5 52 C-7.375 50.375 -7.375 50.375 -9 48 C-9.5 45 -9.5 45 -9 42 C-7.125 39.625 -7.125 39.625 -5 38 C-4.34 38 -3.68 38 -3 38 C-3.01087646 37.33790527 -3.02175293 36.67581055 -3.03295898 35.99365234 C-3.09603144 29.14698702 -2.72490555 22.436972 -2.0625 15.625 C-1.97548828 14.66722656 -1.88847656 13.70945312 -1.79882812 12.72265625 C-1.39445079 8.41528882 -0.90124474 4.23599175 0 0 Z M-4.625 42.5 C-5.07875 42.995 -5.5325 43.49 -6 44 C-5.34 45.65 -4.68 47.3 -4 49 C-2.35 48.67 -0.7 48.34 1 48 C1.77242269 46.16299211 1.77242269 46.16299211 2 44 C0.77045984 42.18700508 0.77045984 42.18700508 -1 41 C-3.12364481 40.77390663 -3.12364481 40.77390663 -4.625 42.5 Z " fill="#466191" transform="translate(50,43)"/>
<path d="M0 0 C3 2 3 2 3.46875 4.25 C3.56493564 12.71433661 1.70234082 18.92460963 -4.0546875 25.26171875 C-11.31597874 32.05818685 -19.8137863 37 -30 37 C-30 36.01 -30 35.02 -30 34 C-29.24976563 33.78085938 -28.49953125 33.56171875 -27.7265625 33.3359375 C-17.22675648 30.08284899 -8.93785221 26.69409754 -3.05859375 17.05078125 C-1.12418701 13.30331432 -0.75042747 9.96996491 -0.4375 5.8125 C-0.35371094 4.72582031 -0.26992187 3.63914063 -0.18359375 2.51953125 C-0.09271484 1.27236328 -0.09271484 1.27236328 0 0 Z " fill="#4B6694" transform="translate(84,40)"/>
<path d="M0 0 C0.33 0 0.66 0 1 0 C1.33 4.62 1.66 9.24 2 14 C2.33 14 2.66 14 3 14 C2.48610873 26.67873863 1.9396479 39.34474208 1 52 C0.67 52 0.34 52 0 52 C0 42.76 0 33.52 0 24 C-0.33 24 -0.66 24 -1 24 C-0.67 16.08 -0.34 8.16 0 0 Z " fill="#6E85A9" transform="translate(50,24)"/>
<path d="M0 0 C2.31 0 4.62 0 7 0 C7 0.99 7 1.98 7 3 C5.68 3 4.36 3 3 3 C3.04125 4.258125 3.0825 5.51625 3.125 6.8125 C3.14263332 12.34936163 2.13105192 17.59720735 1 23 C0.67 23 0.34 23 0 23 C0 15.41 0 7.82 0 0 Z " fill="#45608F" transform="translate(51,18)"/>
<path d="M0 0 C3.875 3.75 3.875 3.75 5 6 C6.65 6 8.3 6 10 6 C10 5.34 10 4.68 10 4 C10.66 4 11.32 4 12 4 C12 3.01 12 2.02 12 1 C12.66 1 13.32 1 14 1 C13.40425532 6.36170213 13.40425532 6.36170213 11.8125 8.875 C9.05655076 10.58558918 7.17374516 10.45339217 4 10 C1.625 8.375 1.625 8.375 0 6 C-0.25 2.75 -0.25 2.75 0 0 Z " fill="#526D99" transform="translate(41,85)"/>
<path d="M0 0 C0.33 0.99 0.66 1.98 1 3 C-4.73230171 5.85288164 -9.59859065 7.53444296 -16 8 C-16 7.01 -16 6.02 -16 5 C-15.15695313 4.72285156 -14.31390625 4.44570312 -13.4453125 4.16015625 C-12.34960938 3.79792969 -11.25390625 3.43570313 -10.125 3.0625 C-9.03445312 2.70285156 -7.94390625 2.34320313 -6.8203125 1.97265625 C-1.10040161 0 -1.10040161 0 0 0 Z " fill="#5A739C" transform="translate(70,69)"/>
<path d="M0 0 C1.485 0.99 1.485 0.99 3 2 C3.29296875 4.6015625 3.29296875 4.6015625 3.1875 7.625 C3.16042969 8.62789062 3.13335937 9.63078125 3.10546875 10.6640625 C3.07066406 11.43492188 3.03585938 12.20578125 3 13 C2.34 13 1.68 13 1 13 C0.67 8.71 0.34 4.42 0 0 Z " fill="#476190" transform="translate(84,40)"/>
<path d="M0 0 C2.31 0 4.62 0 7 0 C5.75 1.5 5.75 1.5 4 3 C2.68 3 1.36 3 0 3 C0 2.01 0 1.02 0 0 Z " fill="#46618E" transform="translate(54,74)"/>
</svg>
